<svg xmlns="http://www.w3.org/2000/svg" xmlns:oryx="http://oryx-editor.org" id="_4FFD39BE-5C78-4B39-AF4B-F9F617051B7D" width="737.921875" height="261.1875" xmlns:xlink="http://www.w3.org/1999/xlink" xmlns:svg="http://www.w3.org/2000/svg"><defs><marker id="_10998F43-F18C-4F2B-A310-CAE22BCAFEEEstart" refX="1" refY="5" markerUnits="userSpaceOnUse" markerWidth="17" markerHeight="11" orient="auto" fill="#000000" stroke="#000000"> 	  		<path id="_10998F43-F18C-4F2B-A310-CAE22BCAFEEEconditional" d="M 0 5 L 8 0 L 16 5 L 8 10 L 0 5" fill="white" stroke="#000000" stroke-width="1" display="none"/> 			<path id="_10998F43-F18C-4F2B-A310-CAE22BCAFEEEdefault" d="M 5 0 L 11 10" fill="white" stroke="#000000" stroke-width="1" display="none"/> 	  	</marker><marker id="_10998F43-F18C-4F2B-A310-CAE22BCAFEEEend" refX="15" refY="6" markerUnits="userSpaceOnUse" markerWidth="15" markerHeight="12" orient="auto" fill="#000000" stroke="#000000"> 	  		<path id="_10998F43-F18C-4F2B-A310-CAE22BCAFEEEframe2" d="M 0 1 L 15 6 L 0 11z" fill="#000000" stroke="#000000" stroke-linejoin="round" stroke-width="2"/> 	  	</marker><marker id="_2C8D40A7-7FE7-4AE1-AD39-FFB31879BA2Astart" refX="1" refY="5" markerUnits="userSpaceOnUse" markerWidth="17" markerHeight="11" orient="auto" fill="#000000" stroke="#000000"> 	  		<path id="_2C8D40A7-7FE7-4AE1-AD39-FFB31879BA2Aconditional" d="M 0 5 L 8 0 L 16 5 L 8 10 L 0 5" fill="white" stroke="#000000" stroke-width="1" display="none"/> 			<path id="_2C8D40A7-7FE7-4AE1-AD39-FFB31879BA2Adefault" d="M 5 0 L 11 10" fill="white" stroke="#000000" stroke-width="1" display="none"/> 	  	</marker><marker id="_2C8D40A7-7FE7-4AE1-AD39-FFB31879BA2Aend" refX="15" refY="6" markerUnits="userSpaceOnUse" markerWidth="15" markerHeight="12" orient="auto" fill="#000000" stroke="#000000"> 	  		<path id="_2C8D40A7-7FE7-4AE1-AD39-FFB31879BA2Aframe2" d="M 0 1 L 15 6 L 0 11z" fill="#000000" stroke="#000000" stroke-linejoin="round" stroke-width="2"/> 	  	</marker><marker id="_5B3900FE-6470-4E0B-A7EA-9644D1DBFF17start" refX="1" refY="5" markerUnits="userSpaceOnUse" markerWidth="17" markerHeight="11" orient="auto" fill="#000000" stroke="#000000"> 	  		<path id="_5B3900FE-6470-4E0B-A7EA-9644D1DBFF17conditional" d="M 0 5 L 8 0 L 16 5 L 8 10 L 0 5" fill="white" stroke="#000000" stroke-width="1" display="none"/> 			<path id="_5B3900FE-6470-4E0B-A7EA-9644D1DBFF17default" d="M 5 0 L 11 10" fill="white" stroke="#000000" stroke-width="1" display="none"/> 	  	</marker><marker id="_5B3900FE-6470-4E0B-A7EA-9644D1DBFF17end" refX="15" refY="6" markerUnits="userSpaceOnUse" markerWidth="15" markerHeight="12" orient="auto" fill="#000000" stroke="#000000"> 	  		<path id="_5B3900FE-6470-4E0B-A7EA-9644D1DBFF17frame2" d="M 0 1 L 15 6 L 0 11z" fill="#000000" stroke="#000000" stroke-linejoin="round" stroke-width="2"/> 	  	</marker></defs><g stroke="none" font-family="Verdana, sans-serif" font-size-adjust="none" font-style="normal" font-variant="normal" font-weight="normal" line-heigth="normal" font-size="12"><g class="stencils" transform="translate(15, 16.1875)"><g class="me"/><g class="children"><g id="_E89C4C97-A4DE-4661-84D9-D7DC1B37BA90" bpmn2nodeid="processStartEvent"><g class="stencils" transform="translate(120, 165)"><g class="me"><g pointer-events="fill" id="_E89C4C97-A4DE-4661-84D9-D7DC1B37BA90">        <defs id="_E89C4C97-A4DE-4661-84D9-D7DC1B37BA90__E89C4C97-A4DE-4661-84D9-D7DC1B37BA90_5"> 		<radialGradient id="_E89C4C97-A4DE-4661-84D9-D7DC1B37BA90background" cx="10%" cy="10%" r="100%" fx="10%" fy="10%"> 			<stop offset="0%" stop-color="#ffffff" stop-opacity="1" id="_E89C4C97-A4DE-4661-84D9-D7DC1B37BA90__E89C4C97-A4DE-4661-84D9-D7DC1B37BA90_6"/> 			<stop id="_E89C4C97-A4DE-4661-84D9-D7DC1B37BA90fill_el" offset="100%" stop-color="#9acd32" stop-opacity="1"/> 		</radialGradient> 	</defs> 	     <circle id="_E89C4C97-A4DE-4661-84D9-D7DC1B37BA90bg_frame" cx="15" cy="15" r="15" stroke="#000000" fill="url(#_E89C4C97-A4DE-4661-84D9-D7DC1B37BA90background) white" stroke-width="1" style="stroke-dasharray: 5.5, 3"/>      <circle id="_E89C4C97-A4DE-4661-84D9-D7DC1B37BA90frame" cx="15" cy="15" r="15" stroke="#000000" fill="none" stroke-width="1" display="inherit"/>  	<text font-size="11" id="_E89C4C97-A4DE-4661-84D9-D7DC1B37BA90text_name" x="15" y="32" oryx:align="top center" stroke="black" stroke-width="0pt" letter-spacing="-0.01px" fill="#000000" text-anchor="middle" transform="rotate(0 15 32)" visibility="inherit" oryx:fontSize="11"/>   </g></g><g class="children" style="overflow:hidden"/><g class="edge"/></g><g class="controls"><g class="dockers"/><g class="magnets" transform="translate(120, 165)"><g pointer-events="all" display="none" transform="translate(7, 7)"><circle cx="8" cy="8" r="4" stroke="none" fill="red" fill-opacity="0.3"/></g></g></g></g><g id="_CC71AA6C-4F9A-4166-A923-7A01C9F70BC9" bpmn2nodeid="_A7ACE033-A00C-45B6-991F-AB3EE85E35AC"><g class="stencils" transform="translate(195, 140)"><g class="me"><g pointer-events="fill" oryx:minimumSize="50 40" id="_CC71AA6C-4F9A-4166-A923-7A01C9F70BC9">   	<defs id="_CC71AA6C-4F9A-4166-A923-7A01C9F70BC9__CC71AA6C-4F9A-4166-A923-7A01C9F70BC9_17"> 		<radialGradient id="_CC71AA6C-4F9A-4166-A923-7A01C9F70BC9background" cx="10%" cy="10%" r="100%" fx="10%" fy="10%"> 			<stop offset="0%" stop-color="#ffffff" stop-opacity="1" id="_CC71AA6C-4F9A-4166-A923-7A01C9F70BC9__CC71AA6C-4F9A-4166-A923-7A01C9F70BC9_18"/> 			<stop id="_CC71AA6C-4F9A-4166-A923-7A01C9F70BC9fill_el" offset="100%" stop-color="#fafad2" stop-opacity="1"/> 		</radialGradient> 		<radialGradient id="_CC71AA6C-4F9A-4166-A923-7A01C9F70BC9borderbackground" cx="10%" cy="10%" r="100%" fx="10%" fy="10%"> 			<stop offset="0%" stop-color="#ffffff" stop-opacity="1" id="_CC71AA6C-4F9A-4166-A923-7A01C9F70BC9__CC71AA6C-4F9A-4166-A923-7A01C9F70BC9_19"/> 			<stop id="_CC71AA6C-4F9A-4166-A923-7A01C9F70BC9fill_border" offset="100%" stop-color="#000000" stop-opacity="1" stroke="#000000"/> 		</radialGradient> 	</defs> 	 	<rect id="_CC71AA6C-4F9A-4166-A923-7A01C9F70BC9text_frame" oryx:anchors="bottom top right left" x="1" y="1" width="94" height="79" rx="10" ry="10" stroke="none" stroke-width="0" fill="none"/> 	<rect id="_CC71AA6C-4F9A-4166-A923-7A01C9F70BC9bg_frame" oryx:resize="vertical horizontal" x="0" y="0" width="100" height="80" rx="10" ry="10" stroke="#000000" stroke-width="1" fill="url(#_CC71AA6C-4F9A-4166-A923-7A01C9F70BC9background) #ffffcc"/> 		<text font-size="12" id="_CC71AA6C-4F9A-4166-A923-7A01C9F70BC9text_name" x="50" y="40" oryx:align="middle center" oryx:fittoelem="text_frame" stroke="black" text-anchor="middle" stroke-width="0pt" letter-spacing="-0.01px" fill="#000000" transform="rotate(0 50 40)" visibility="inherit" oryx:fontSize="12"><tspan x="50" y="40" dy="-1" id="ext-gen1093">Review </tspan><tspan x="50" y="40" dy="11" id="ext-gen1092">Opportunity</tspan></text>     <g id="_CC71AA6C-4F9A-4166-A923-7A01C9F70BC9manualTask" transform="scale(0.7,0.7) translate(8,8)" display="none">     	<path oryx:anchors="top left" id="_CC71AA6C-4F9A-4166-A923-7A01C9F70BC9frame" style="opacity:1;fill:none;fill-opacity:1;stroke-width:1" d="M0.5,3.751l4.083-3.25c0,0,11.166,0.083,12.083,0.083s-2.417,2.917-1.5,2.917     s11.667,0,12.584,0c1.166,1.708-0.168,3.167-0.834,3.667s0.875,1.917-1,4.417c-0.75,0.25,0.75,1.875-1.333,3.333     c-1.167,0.583,0.583,1.542-1.25,2.833c-1.167,0-20.833,0.083-20.833,0.083l-2-1.333V3.751z" stroke="#000000"/> 		<path id="_CC71AA6C-4F9A-4166-A923-7A01C9F70BC9frame2" oryx:anchors="top left" style="opacity:1;fill:none;stroke-width:2" d="M 13.5 7 L 27 7" stroke="#000000"/> 		<path id="_CC71AA6C-4F9A-4166-A923-7A01C9F70BC9frame3" oryx:anchors="top left" style="opacity:1;fill:none;stroke-width:2" d="M 13.5 11 L 26 11" stroke="#000000"/> 		<path id="_CC71AA6C-4F9A-4166-A923-7A01C9F70BC9frame4" oryx:anchors="top left" style="opacity:1;fill:none;stroke-width:1.5" d="M 14 14.5 L 25 14.5" stroke="#000000"/> 		<path id="_CC71AA6C-4F9A-4166-A923-7A01C9F70BC9frame5" oryx:anchors="top left" style="opacity:1;fill:none;stroke-width:1.5" d="M 8.2 3.1 L 15 3.1" stroke="#000000"/> 	</g> 	 	<g id="_CC71AA6C-4F9A-4166-A923-7A01C9F70BC9businessRuleTask" transform="scale(0.7,0.7) translate(8,8)" display="none"> 		<rect id="_CC71AA6C-4F9A-4166-A923-7A01C9F70BC9frame6" oryx:anchors="top left" x="0" y="0" width="22" height="4" style="opacity:1;fill:#B3B1B3;fill-opacity:1;" stroke="#000000"/> 		<rect id="_CC71AA6C-4F9A-4166-A923-7A01C9F70BC9frame7" oryx:anchors="top left" x="0" y="4" style="opacity:1;fill:none;" width="22" height="12" stroke="#000000"/> 		<path id="_CC71AA6C-4F9A-4166-A923-7A01C9F70BC9frame8" oryx:anchors="top left" style="opacity:1;fill:none;" d="M 0 10 L 22 10" stroke="#000000"/> 		<path id="_CC71AA6C-4F9A-4166-A923-7A01C9F70BC9frame9" oryx:anchors="top left" style="opacity:1; fill:none;" d="M 7 4 L 7 16" stroke="#000000"/> 	</g> 	 	<g id="_CC71AA6C-4F9A-4166-A923-7A01C9F70BC9scriptTask" transform="scale(0.7,0.7) translate(8,8)" display="none"> 		<path oryx:anchors="top left" id="_CC71AA6C-4F9A-4166-A923-7A01C9F70BC9frame10" style="opacity:1;fill:none;" stroke="#000000" d="M6.402,0.5h14.5c0,0-5.833,2.833-5.833,5.583s4.417,6,4.417,9.167    s-4.167,5.083-4.167,5.083H0.235c0,0,5-2.667,5-5s-4.583-6.75-4.583-9.25S6.402,0.5,6.402,0.5z"/> 		<path oryx:anchors="top left" id="_CC71AA6C-4F9A-4166-A923-7A01C9F70BC9frame11" style="opacity:1;fill:none;stroke-width:1.5" d="M 3.5 4.5 L 13.5 4.5" stroke="#000000"/> 		<path oryx:anchors="top left" id="_CC71AA6C-4F9A-4166-A923-7A01C9F70BC9frame12" style="opacity:1;fill:none;stroke-width:1.5" d="M 3.8 8.5 L 13.8 8.5" stroke="#000000"/> 		<path oryx:anchors="top left" id="_CC71AA6C-4F9A-4166-A923-7A01C9F70BC9frame13" style="opacity:1;fill:none;stroke-width:1.5" d="M 6.3 12.5 L 16.3 12.5" stroke="#000000"/> 		<path oryx:anchors="top left" id="_CC71AA6C-4F9A-4166-A923-7A01C9F70BC9frame14" style="opacity:1;fill:none;stroke-width:1.5" d="M 6.5 16.5 L 16.5 16.5" stroke="#000000"/> 	</g> 	 	<g id="_CC71AA6C-4F9A-4166-A923-7A01C9F70BC9userTask" transform="scale(0.7,0.7) translate(8,8)" display="inherit"> 		<path id="_CC71AA6C-4F9A-4166-A923-7A01C9F70BC9frame15" oryx:anchors="top left" style="opacity:1;fill:#F4F6F7" stroke="#000000" d="M0.585,24.167h24.083v-7.833c0,0-2.333-3.917-7.083-5.167h-9.25    c-4.417,1.333-7.833,5.75-7.833,5.75L0.585,24.167z"/> 		<path id="_CC71AA6C-4F9A-4166-A923-7A01C9F70BC9frame16" oryx:anchors="top left" style="opacity:1;fill:none" d="M 6 20 L 6 24" stroke="#000000"/> 		<path id="_CC71AA6C-4F9A-4166-A923-7A01C9F70BC9frame17" oryx:anchors="top left" style="opacity:1;fill:none" d="M 20 20 L 20 24" stroke="#000000"/> 		<circle id="_CC71AA6C-4F9A-4166-A923-7A01C9F70BC9frame18" oryx:anchors="top left" fill="black" cx="13.002" cy="5.916" r="5.417" stroke="#000000"/> 		<path id="_CC71AA6C-4F9A-4166-A923-7A01C9F70BC9frame19" oryx:anchors="top left" style="opacity:1;fill:#F0EFF0;" stroke="#000000" d="M8.043,7.083c0,0,2.814-2.426,5.376-1.807s4.624-0.693,4.624-0.693    c0.25,1.688,0.042,3.75-1.458,5.584c0,0,1.083,0.75,1.083,1.5s0.125,1.875-1,3s-5.5,1.25-6.75,0S8.668,12.834,8.668,12    s0.583-1.25,1.25-1.917C8.835,9.5,7.419,7.708,8.043,7.083z"/> 	</g> 	 	<g id="_CC71AA6C-4F9A-4166-A923-7A01C9F70BC9serviceTask" transform="scale(0.7,0.7) translate(8,8)" display="none"> 		<polygon oryx:anchors="top left" id="_CC71AA6C-4F9A-4166-A923-7A01C9F70BC9frame20" style="opacity:1;fill:#ffffff" stroke="#000000" points="15.392,5.064 17.954,2.502 20.347,4.895 17.786,7.455     18.729,9.732 22.353,9.732 22.353,13.115 18.731,13.115 17.788,15.392 20.351,17.955 17.958,20.347 15.397,17.786 13.12,18.729     13.12,22.353 9.737,22.353 9.737,18.731 7.46,17.788 4.897,20.35 2.506,17.958 5.066,15.397 4.124,13.12 0.5,13.12 0.5,9.737     4.121,9.737 5.065,7.461 2.503,4.898 4.895,2.506 7.455,5.066 9.732,4.125 9.732,0.5 13.116,0.5 13.116,4.121 "/> 		<circle oryx:anchors="top left" id="_CC71AA6C-4F9A-4166-A923-7A01C9F70BC9frame21" style="opacity:1;fill:none" stroke="#000000" cx="11.427" cy="11.426" r="3.714"/> 		<polygon oryx:anchors="top left" id="_CC71AA6C-4F9A-4166-A923-7A01C9F70BC9frame22" style="opacity:1;fill:#ffffff" stroke="#000000" points="21.392,11.064 23.954,8.502 26.347,10.895 23.786,13.455     24.729,15.732 28.353,15.732 28.353,19.115 24.731,19.115 23.788,21.392 26.351,23.955 23.958,26.347 21.397,23.786 19.12,24.729     19.12,28.353 15.737,28.353 15.737,24.731 13.46,23.788 10.897,26.35 8.506,23.958 11.066,21.397 10.124,19.12 6.5,19.12     6.5,15.737 10.121,15.737 11.065,13.461 8.503,10.898 10.895,8.506 13.455,11.066 15.732,10.125 15.732,6.5 19.116,6.5     19.116,10.121 "/> 		<circle oryx:anchors="top left" id="_CC71AA6C-4F9A-4166-A923-7A01C9F70BC9frame23" style="opacity:1;fill:none;" stroke="#000000" cx="17.427" cy="17.426" r="3.714"/> 	</g> 	 	<g id="_CC71AA6C-4F9A-4166-A923-7A01C9F70BC9sendTask" display="none"> 		<path id="_CC71AA6C-4F9A-4166-A923-7A01C9F70BC9stframe24" oryx:anchors="left top" stroke="#FFFFFF" fill="black" stroke-width="1" d="M8,11 L8,21 L24,21 L24,11 L16,17z"/> 		<path id="_CC71AA6C-4F9A-4166-A923-7A01C9F70BC9stframe25" oryx:anchors="left top" stroke="#FFFFFF" fill="black" stroke-width="1" d="M7,10 L16,17 L25 10z"/> 	</g> 	 	<g id="_CC71AA6C-4F9A-4166-A923-7A01C9F70BC9receiveTask" display="none"> 		<path id="_CC71AA6C-4F9A-4166-A923-7A01C9F70BC9frame26" oryx:anchors="left top" stroke="#000000" fill="none" stroke-width="1" d="M8,11 L8,21 L24,21 L24,11z M8,11 L16,17 L24,11"/> 	</g> 	 	<g id="_CC71AA6C-4F9A-4166-A923-7A01C9F70BC9none" display="none"/>  	<g id="_CC71AA6C-4F9A-4166-A923-7A01C9F70BC9sequential" display="none">         <path oryx:anchors="bottom" fill="none" stroke="#000000" stroke-width="2" d="M46,76h10M46,72h10 M46,68h10" id="_CC71AA6C-4F9A-4166-A923-7A01C9F70BC9__CC71AA6C-4F9A-4166-A923-7A01C9F70BC9_20"/>     </g>   </g></g><g class="children" style="overflow:hidden"/><g class="edge"/></g><g class="controls"><g class="dockers"/><g class="magnets" transform="translate(195, 140)"><g pointer-events="all" display="none" transform="translate(-7, 12)"><circle cx="8" cy="8" r="4" stroke="none" fill="red" fill-opacity="0.3"/></g><g pointer-events="all" display="none" transform="translate(-7, 32)"><circle cx="8" cy="8" r="4" stroke="none" fill="red" fill-opacity="0.3"/></g><g pointer-events="all" display="none" transform="translate(-7, 52)"><circle cx="8" cy="8" r="4" stroke="none" fill="red" fill-opacity="0.3"/></g><g pointer-events="all" display="none" transform="translate(17, 71)"><circle cx="8" cy="8" r="4" stroke="none" fill="red" fill-opacity="0.3"/></g><g pointer-events="all" display="none" transform="translate(42, 71)"><circle cx="8" cy="8" r="4" stroke="none" fill="red" fill-opacity="0.3"/></g><g pointer-events="all" display="none" transform="translate(67, 71)"><circle cx="8" cy="8" r="4" stroke="none" fill="red" fill-opacity="0.3"/></g><g pointer-events="all" display="none" transform="translate(91, 12)"><circle cx="8" cy="8" r="4" stroke="none" fill="red" fill-opacity="0.3"/></g><g pointer-events="all" display="none" transform="translate(91, 32)"><circle cx="8" cy="8" r="4" stroke="none" fill="red" fill-opacity="0.3"/></g><g pointer-events="all" display="none" transform="translate(91, 52)"><circle cx="8" cy="8" r="4" stroke="none" fill="red" fill-opacity="0.3"/></g><g pointer-events="all" display="none" transform="translate(17, -7)"><circle cx="8" cy="8" r="4" stroke="none" fill="red" fill-opacity="0.3"/></g><g pointer-events="all" display="none" transform="translate(42, -7)"><circle cx="8" cy="8" r="4" stroke="none" fill="red" fill-opacity="0.3"/></g><g pointer-events="all" display="none" transform="translate(67, -7)"><circle cx="8" cy="8" r="4" stroke="none" fill="red" fill-opacity="0.3"/></g><g pointer-events="all" display="none" transform="translate(42, 32)"><circle cx="8" cy="8" r="4" stroke="none" fill="red" fill-opacity="0.3"/></g></g></g></g><g id="_0073A46A-3DB6-41BB-899C-9DAA125DB35C" bpmn2nodeid="_85290AD3-29C8-47FB-BC86-D0BB2E79BB64"><g class="stencils" transform="translate(340, 140)"><g class="me"><g pointer-events="fill" oryx:minimumSize="50 40" id="_0073A46A-3DB6-41BB-899C-9DAA125DB35C">   	<defs id="_0073A46A-3DB6-41BB-899C-9DAA125DB35C__0073A46A-3DB6-41BB-899C-9DAA125DB35C_17"> 		<radialGradient id="_0073A46A-3DB6-41BB-899C-9DAA125DB35Cbackground" cx="10%" cy="10%" r="100%" fx="10%" fy="10%"> 			<stop offset="0%" stop-color="#ffffff" stop-opacity="1" id="_0073A46A-3DB6-41BB-899C-9DAA125DB35C__0073A46A-3DB6-41BB-899C-9DAA125DB35C_18"/> 			<stop id="_0073A46A-3DB6-41BB-899C-9DAA125DB35Cfill_el" offset="100%" stop-color="#fafad2" stop-opacity="1"/> 		</radialGradient> 		<radialGradient id="_0073A46A-3DB6-41BB-899C-9DAA125DB35Cborderbackground" cx="10%" cy="10%" r="100%" fx="10%" fy="10%"> 			<stop offset="0%" stop-color="#ffffff" stop-opacity="1" id="_0073A46A-3DB6-41BB-899C-9DAA125DB35C__0073A46A-3DB6-41BB-899C-9DAA125DB35C_19"/> 			<stop id="_0073A46A-3DB6-41BB-899C-9DAA125DB35Cfill_border" offset="100%" stop-color="#000000" stop-opacity="1" stroke="#000000"/> 		</radialGradient> 	</defs> 	 	<rect id="_0073A46A-3DB6-41BB-899C-9DAA125DB35Ctext_frame" oryx:anchors="bottom top right left" x="1" y="1" width="94" height="79" rx="10" ry="10" stroke="none" stroke-width="0" fill="none"/> 	<rect id="_0073A46A-3DB6-41BB-899C-9DAA125DB35Cbg_frame" oryx:resize="vertical horizontal" x="0" y="0" width="100" height="80" rx="10" ry="10" stroke="#000000" stroke-width="1" fill="url(#_0073A46A-3DB6-41BB-899C-9DAA125DB35Cbackground) #ffffcc"/> 		<text font-size="12" id="_0073A46A-3DB6-41BB-899C-9DAA125DB35Ctext_name" x="50" y="40" oryx:align="middle center" oryx:fittoelem="text_frame" stroke="black" text-anchor="middle" stroke-width="0pt" letter-spacing="-0.01px" fill="#000000" transform="rotate(0 50 40)" visibility="inherit" oryx:fontSize="12"/>     <g id="_0073A46A-3DB6-41BB-899C-9DAA125DB35CmanualTask" transform="scale(0.7,0.7) translate(8,8)" display="none">     	<path oryx:anchors="top left" id="_0073A46A-3DB6-41BB-899C-9DAA125DB35Cframe" style="opacity:1;fill:none;fill-opacity:1;stroke-width:1" d="M0.5,3.751l4.083-3.25c0,0,11.166,0.083,12.083,0.083s-2.417,2.917-1.5,2.917     s11.667,0,12.584,0c1.166,1.708-0.168,3.167-0.834,3.667s0.875,1.917-1,4.417c-0.75,0.25,0.75,1.875-1.333,3.333     c-1.167,0.583,0.583,1.542-1.25,2.833c-1.167,0-20.833,0.083-20.833,0.083l-2-1.333V3.751z" stroke="#000000"/> 		<path id="_0073A46A-3DB6-41BB-899C-9DAA125DB35Cframe2" oryx:anchors="top left" style="opacity:1;fill:none;stroke-width:2" d="M 13.5 7 L 27 7" stroke="#000000"/> 		<path id="_0073A46A-3DB6-41BB-899C-9DAA125DB35Cframe3" oryx:anchors="top left" style="opacity:1;fill:none;stroke-width:2" d="M 13.5 11 L 26 11" stroke="#000000"/> 		<path id="_0073A46A-3DB6-41BB-899C-9DAA125DB35Cframe4" oryx:anchors="top left" style="opacity:1;fill:none;stroke-width:1.5" d="M 14 14.5 L 25 14.5" stroke="#000000"/> 		<path id="_0073A46A-3DB6-41BB-899C-9DAA125DB35Cframe5" oryx:anchors="top left" style="opacity:1;fill:none;stroke-width:1.5" d="M 8.2 3.1 L 15 3.1" stroke="#000000"/> 	</g> 	 	<g id="_0073A46A-3DB6-41BB-899C-9DAA125DB35CbusinessRuleTask" transform="scale(0.7,0.7) translate(8,8)" display="none"> 		<rect id="_0073A46A-3DB6-41BB-899C-9DAA125DB35Cframe6" oryx:anchors="top left" x="0" y="0" width="22" height="4" style="opacity:1;fill:#B3B1B3;fill-opacity:1;" stroke="#000000"/> 		<rect id="_0073A46A-3DB6-41BB-899C-9DAA125DB35Cframe7" oryx:anchors="top left" x="0" y="4" style="opacity:1;fill:none;" width="22" height="12" stroke="#000000"/> 		<path id="_0073A46A-3DB6-41BB-899C-9DAA125DB35Cframe8" oryx:anchors="top left" style="opacity:1;fill:none;" d="M 0 10 L 22 10" stroke="#000000"/> 		<path id="_0073A46A-3DB6-41BB-899C-9DAA125DB35Cframe9" oryx:anchors="top left" style="opacity:1; fill:none;" d="M 7 4 L 7 16" stroke="#000000"/> 	</g> 	 	<g id="_0073A46A-3DB6-41BB-899C-9DAA125DB35CscriptTask" transform="scale(0.7,0.7) translate(8,8)" display="none"> 		<path oryx:anchors="top left" id="_0073A46A-3DB6-41BB-899C-9DAA125DB35Cframe10" style="opacity:1;fill:none;" stroke="#000000" d="M6.402,0.5h14.5c0,0-5.833,2.833-5.833,5.583s4.417,6,4.417,9.167    s-4.167,5.083-4.167,5.083H0.235c0,0,5-2.667,5-5s-4.583-6.75-4.583-9.25S6.402,0.5,6.402,0.5z"/> 		<path oryx:anchors="top left" id="_0073A46A-3DB6-41BB-899C-9DAA125DB35Cframe11" style="opacity:1;fill:none;stroke-width:1.5" d="M 3.5 4.5 L 13.5 4.5" stroke="#000000"/> 		<path oryx:anchors="top left" id="_0073A46A-3DB6-41BB-899C-9DAA125DB35Cframe12" style="opacity:1;fill:none;stroke-width:1.5" d="M 3.8 8.5 L 13.8 8.5" stroke="#000000"/> 		<path oryx:anchors="top left" id="_0073A46A-3DB6-41BB-899C-9DAA125DB35Cframe13" style="opacity:1;fill:none;stroke-width:1.5" d="M 6.3 12.5 L 16.3 12.5" stroke="#000000"/> 		<path oryx:anchors="top left" id="_0073A46A-3DB6-41BB-899C-9DAA125DB35Cframe14" style="opacity:1;fill:none;stroke-width:1.5" d="M 6.5 16.5 L 16.5 16.5" stroke="#000000"/> 	</g> 	 	<g id="_0073A46A-3DB6-41BB-899C-9DAA125DB35CuserTask" transform="scale(0.7,0.7) translate(8,8)" display="none"> 		<path id="_0073A46A-3DB6-41BB-899C-9DAA125DB35Cframe15" oryx:anchors="top left" style="opacity:1;fill:#F4F6F7" stroke="#000000" d="M0.585,24.167h24.083v-7.833c0,0-2.333-3.917-7.083-5.167h-9.25    c-4.417,1.333-7.833,5.75-7.833,5.75L0.585,24.167z"/> 		<path id="_0073A46A-3DB6-41BB-899C-9DAA125DB35Cframe16" oryx:anchors="top left" style="opacity:1;fill:none" d="M 6 20 L 6 24" stroke="#000000"/> 		<path id="_0073A46A-3DB6-41BB-899C-9DAA125DB35Cframe17" oryx:anchors="top left" style="opacity:1;fill:none" d="M 20 20 L 20 24" stroke="#000000"/> 		<circle id="_0073A46A-3DB6-41BB-899C-9DAA125DB35Cframe18" oryx:anchors="top left" fill="black" cx="13.002" cy="5.916" r="5.417" stroke="#000000"/> 		<path id="_0073A46A-3DB6-41BB-899C-9DAA125DB35Cframe19" oryx:anchors="top left" style="opacity:1;fill:#F0EFF0;" stroke="#000000" d="M8.043,7.083c0,0,2.814-2.426,5.376-1.807s4.624-0.693,4.624-0.693    c0.25,1.688,0.042,3.75-1.458,5.584c0,0,1.083,0.75,1.083,1.5s0.125,1.875-1,3s-5.5,1.25-6.75,0S8.668,12.834,8.668,12    s0.583-1.25,1.25-1.917C8.835,9.5,7.419,7.708,8.043,7.083z"/> 	</g> 	 	<g id="_0073A46A-3DB6-41BB-899C-9DAA125DB35CserviceTask" transform="scale(0.7,0.7) translate(8,8)" display="none"> 		<polygon oryx:anchors="top left" id="_0073A46A-3DB6-41BB-899C-9DAA125DB35Cframe20" style="opacity:1;fill:#ffffff" stroke="#000000" points="15.392,5.064 17.954,2.502 20.347,4.895 17.786,7.455     18.729,9.732 22.353,9.732 22.353,13.115 18.731,13.115 17.788,15.392 20.351,17.955 17.958,20.347 15.397,17.786 13.12,18.729     13.12,22.353 9.737,22.353 9.737,18.731 7.46,17.788 4.897,20.35 2.506,17.958 5.066,15.397 4.124,13.12 0.5,13.12 0.5,9.737     4.121,9.737 5.065,7.461 2.503,4.898 4.895,2.506 7.455,5.066 9.732,4.125 9.732,0.5 13.116,0.5 13.116,4.121 "/> 		<circle oryx:anchors="top left" id="_0073A46A-3DB6-41BB-899C-9DAA125DB35Cframe21" style="opacity:1;fill:none" stroke="#000000" cx="11.427" cy="11.426" r="3.714"/> 		<polygon oryx:anchors="top left" id="_0073A46A-3DB6-41BB-899C-9DAA125DB35Cframe22" style="opacity:1;fill:#ffffff" stroke="#000000" points="21.392,11.064 23.954,8.502 26.347,10.895 23.786,13.455     24.729,15.732 28.353,15.732 28.353,19.115 24.731,19.115 23.788,21.392 26.351,23.955 23.958,26.347 21.397,23.786 19.12,24.729     19.12,28.353 15.737,28.353 15.737,24.731 13.46,23.788 10.897,26.35 8.506,23.958 11.066,21.397 10.124,19.12 6.5,19.12     6.5,15.737 10.121,15.737 11.065,13.461 8.503,10.898 10.895,8.506 13.455,11.066 15.732,10.125 15.732,6.5 19.116,6.5     19.116,10.121 "/> 		<circle oryx:anchors="top left" id="_0073A46A-3DB6-41BB-899C-9DAA125DB35Cframe23" style="opacity:1;fill:none;" stroke="#000000" cx="17.427" cy="17.426" r="3.714"/> 	</g> 	 	<g id="_0073A46A-3DB6-41BB-899C-9DAA125DB35CsendTask" display="none"> 		<path id="_0073A46A-3DB6-41BB-899C-9DAA125DB35Cstframe24" oryx:anchors="left top" stroke="#FFFFFF" fill="black" stroke-width="1" d="M8,11 L8,21 L24,21 L24,11 L16,17z"/> 		<path id="_0073A46A-3DB6-41BB-899C-9DAA125DB35Cstframe25" oryx:anchors="left top" stroke="#FFFFFF" fill="black" stroke-width="1" d="M7,10 L16,17 L25 10z"/> 	</g> 	 	<g id="_0073A46A-3DB6-41BB-899C-9DAA125DB35CreceiveTask" display="none"> 		<path id="_0073A46A-3DB6-41BB-899C-9DAA125DB35Cframe26" oryx:anchors="left top" stroke="#000000" fill="none" stroke-width="1" d="M8,11 L8,21 L24,21 L24,11z M8,11 L16,17 L24,11"/> 	</g> 	 	<g id="_0073A46A-3DB6-41BB-899C-9DAA125DB35Cnone" display="inherit"/>  	<g id="_0073A46A-3DB6-41BB-899C-9DAA125DB35Csequential" display="none">         <path oryx:anchors="bottom" fill="none" stroke="#000000" stroke-width="2" d="M46,76h10M46,72h10 M46,68h10" id="_0073A46A-3DB6-41BB-899C-9DAA125DB35C__0073A46A-3DB6-41BB-899C-9DAA125DB35C_20"/>     </g>   </g></g><g class="children" style="overflow:hidden"/><g class="edge"/></g><g class="controls"><g class="dockers"/><g class="magnets" transform="translate(340, 140)"><g pointer-events="all" display="none" transform="translate(-7, 12)"><circle cx="8" cy="8" r="4" stroke="none" fill="red" fill-opacity="0.3"/></g><g pointer-events="all" display="none" transform="translate(-7, 32)"><circle cx="8" cy="8" r="4" stroke="none" fill="red" fill-opacity="0.3"/></g><g pointer-events="all" display="none" transform="translate(-7, 52)"><circle cx="8" cy="8" r="4" stroke="none" fill="red" fill-opacity="0.3"/></g><g pointer-events="all" display="none" transform="translate(17, 71)"><circle cx="8" cy="8" r="4" stroke="none" fill="red" fill-opacity="0.3"/></g><g pointer-events="all" display="none" transform="translate(42, 71)"><circle cx="8" cy="8" r="4" stroke="none" fill="red" fill-opacity="0.3"/></g><g pointer-events="all" display="none" transform="translate(67, 71)"><circle cx="8" cy="8" r="4" stroke="none" fill="red" fill-opacity="0.3"/></g><g pointer-events="all" display="none" transform="translate(91, 12)"><circle cx="8" cy="8" r="4" stroke="none" fill="red" fill-opacity="0.3"/></g><g pointer-events="all" display="none" transform="translate(91, 32)"><circle cx="8" cy="8" r="4" stroke="none" fill="red" fill-opacity="0.3"/></g><g pointer-events="all" display="none" transform="translate(91, 52)"><circle cx="8" cy="8" r="4" stroke="none" fill="red" fill-opacity="0.3"/></g><g pointer-events="all" display="none" transform="translate(17, -7)"><circle cx="8" cy="8" r="4" stroke="none" fill="red" fill-opacity="0.3"/></g><g pointer-events="all" display="none" transform="translate(42, -7)"><circle cx="8" cy="8" r="4" stroke="none" fill="red" fill-opacity="0.3"/></g><g pointer-events="all" display="none" transform="translate(67, -7)"><circle cx="8" cy="8" r="4" stroke="none" fill="red" fill-opacity="0.3"/></g><g pointer-events="all" display="none" transform="translate(42, 32)"><circle cx="8" cy="8" r="4" stroke="none" fill="red" fill-opacity="0.3"/></g></g></g></g><g id="_896F182E-65D2-433D-B38D-C1BDE6C94BD7" bpmn2nodeid="_A4D190C1-4FC1-46A0-80BE-610BE82CC7B2"><g class="stencils" transform="translate(485, 140)"><g class="me"><g pointer-events="fill" oryx:minimumSize="50 40" id="_896F182E-65D2-433D-B38D-C1BDE6C94BD7">   	<defs id="_896F182E-65D2-433D-B38D-C1BDE6C94BD7__896F182E-65D2-433D-B38D-C1BDE6C94BD7_17"> 		<radialGradient id="_896F182E-65D2-433D-B38D-C1BDE6C94BD7background" cx="10%" cy="10%" r="100%" fx="10%" fy="10%"> 			<stop offset="0%" stop-color="#ffffff" stop-opacity="1" id="_896F182E-65D2-433D-B38D-C1BDE6C94BD7__896F182E-65D2-433D-B38D-C1BDE6C94BD7_18"/> 			<stop id="_896F182E-65D2-433D-B38D-C1BDE6C94BD7fill_el" offset="100%" stop-color="#fafad2" stop-opacity="1"/> 		</radialGradient> 		<radialGradient id="_896F182E-65D2-433D-B38D-C1BDE6C94BD7borderbackground" cx="10%" cy="10%" r="100%" fx="10%" fy="10%"> 			<stop offset="0%" stop-color="#ffffff" stop-opacity="1" id="_896F182E-65D2-433D-B38D-C1BDE6C94BD7__896F182E-65D2-433D-B38D-C1BDE6C94BD7_19"/> 			<stop id="_896F182E-65D2-433D-B38D-C1BDE6C94BD7fill_border" offset="100%" stop-color="#000000" stop-opacity="1" stroke="#000000"/> 		</radialGradient> 	</defs> 	 	<rect id="_896F182E-65D2-433D-B38D-C1BDE6C94BD7text_frame" oryx:anchors="bottom top right left" x="1" y="1" width="94" height="79" rx="10" ry="10" stroke="none" stroke-width="0" fill="none"/> 	<rect id="_896F182E-65D2-433D-B38D-C1BDE6C94BD7bg_frame" oryx:resize="vertical horizontal" x="0" y="0" width="100" height="80" rx="10" ry="10" stroke="#000000" stroke-width="1" fill="url(#_896F182E-65D2-433D-B38D-C1BDE6C94BD7background) #ffffcc"/> 		<text font-size="12" id="_896F182E-65D2-433D-B38D-C1BDE6C94BD7text_name" x="50" y="40" oryx:align="middle center" oryx:fittoelem="text_frame" stroke="black" text-anchor="middle" stroke-width="0pt" letter-spacing="-0.01px" fill="#000000" transform="rotate(0 50 40)" visibility="inherit" oryx:fontSize="12"/>     <g id="_896F182E-65D2-433D-B38D-C1BDE6C94BD7manualTask" transform="scale(0.7,0.7) translate(8,8)" display="none">     	<path oryx:anchors="top left" id="_896F182E-65D2-433D-B38D-C1BDE6C94BD7frame" style="opacity:1;fill:none;fill-opacity:1;stroke-width:1" d="M0.5,3.751l4.083-3.25c0,0,11.166,0.083,12.083,0.083s-2.417,2.917-1.5,2.917     s11.667,0,12.584,0c1.166,1.708-0.168,3.167-0.834,3.667s0.875,1.917-1,4.417c-0.75,0.25,0.75,1.875-1.333,3.333     c-1.167,0.583,0.583,1.542-1.25,2.833c-1.167,0-20.833,0.083-20.833,0.083l-2-1.333V3.751z" stroke="#000000"/> 		<path id="_896F182E-65D2-433D-B38D-C1BDE6C94BD7frame2" oryx:anchors="top left" style="opacity:1;fill:none;stroke-width:2" d="M 13.5 7 L 27 7" stroke="#000000"/> 		<path id="_896F182E-65D2-433D-B38D-C1BDE6C94BD7frame3" oryx:anchors="top left" style="opacity:1;fill:none;stroke-width:2" d="M 13.5 11 L 26 11" stroke="#000000"/> 		<path id="_896F182E-65D2-433D-B38D-C1BDE6C94BD7frame4" oryx:anchors="top left" style="opacity:1;fill:none;stroke-width:1.5" d="M 14 14.5 L 25 14.5" stroke="#000000"/> 		<path id="_896F182E-65D2-433D-B38D-C1BDE6C94BD7frame5" oryx:anchors="top left" style="opacity:1;fill:none;stroke-width:1.5" d="M 8.2 3.1 L 15 3.1" stroke="#000000"/> 	</g> 	 	<g id="_896F182E-65D2-433D-B38D-C1BDE6C94BD7businessRuleTask" transform="scale(0.7,0.7) translate(8,8)" display="none"> 		<rect id="_896F182E-65D2-433D-B38D-C1BDE6C94BD7frame6" oryx:anchors="top left" x="0" y="0" width="22" height="4" style="opacity:1;fill:#B3B1B3;fill-opacity:1;" stroke="#000000"/> 		<rect id="_896F182E-65D2-433D-B38D-C1BDE6C94BD7frame7" oryx:anchors="top left" x="0" y="4" style="opacity:1;fill:none;" width="22" height="12" stroke="#000000"/> 		<path id="_896F182E-65D2-433D-B38D-C1BDE6C94BD7frame8" oryx:anchors="top left" style="opacity:1;fill:none;" d="M 0 10 L 22 10" stroke="#000000"/> 		<path id="_896F182E-65D2-433D-B38D-C1BDE6C94BD7frame9" oryx:anchors="top left" style="opacity:1; fill:none;" d="M 7 4 L 7 16" stroke="#000000"/> 	</g> 	 	<g id="_896F182E-65D2-433D-B38D-C1BDE6C94BD7scriptTask" transform="scale(0.7,0.7) translate(8,8)" display="none"> 		<path oryx:anchors="top left" id="_896F182E-65D2-433D-B38D-C1BDE6C94BD7frame10" style="opacity:1;fill:none;" stroke="#000000" d="M6.402,0.5h14.5c0,0-5.833,2.833-5.833,5.583s4.417,6,4.417,9.167    s-4.167,5.083-4.167,5.083H0.235c0,0,5-2.667,5-5s-4.583-6.75-4.583-9.25S6.402,0.5,6.402,0.5z"/> 		<path oryx:anchors="top left" id="_896F182E-65D2-433D-B38D-C1BDE6C94BD7frame11" style="opacity:1;fill:none;stroke-width:1.5" d="M 3.5 4.5 L 13.5 4.5" stroke="#000000"/> 		<path oryx:anchors="top left" id="_896F182E-65D2-433D-B38D-C1BDE6C94BD7frame12" style="opacity:1;fill:none;stroke-width:1.5" d="M 3.8 8.5 L 13.8 8.5" stroke="#000000"/> 		<path oryx:anchors="top left" id="_896F182E-65D2-433D-B38D-C1BDE6C94BD7frame13" style="opacity:1;fill:none;stroke-width:1.5" d="M 6.3 12.5 L 16.3 12.5" stroke="#000000"/> 		<path oryx:anchors="top left" id="_896F182E-65D2-433D-B38D-C1BDE6C94BD7frame14" style="opacity:1;fill:none;stroke-width:1.5" d="M 6.5 16.5 L 16.5 16.5" stroke="#000000"/> 	</g> 	 	<g id="_896F182E-65D2-433D-B38D-C1BDE6C94BD7userTask" transform="scale(0.7,0.7) translate(8,8)" display="none"> 		<path id="_896F182E-65D2-433D-B38D-C1BDE6C94BD7frame15" oryx:anchors="top left" style="opacity:1;fill:#F4F6F7" stroke="#000000" d="M0.585,24.167h24.083v-7.833c0,0-2.333-3.917-7.083-5.167h-9.25    c-4.417,1.333-7.833,5.75-7.833,5.75L0.585,24.167z"/> 		<path id="_896F182E-65D2-433D-B38D-C1BDE6C94BD7frame16" oryx:anchors="top left" style="opacity:1;fill:none" d="M 6 20 L 6 24" stroke="#000000"/> 		<path id="_896F182E-65D2-433D-B38D-C1BDE6C94BD7frame17" oryx:anchors="top left" style="opacity:1;fill:none" d="M 20 20 L 20 24" stroke="#000000"/> 		<circle id="_896F182E-65D2-433D-B38D-C1BDE6C94BD7frame18" oryx:anchors="top left" fill="black" cx="13.002" cy="5.916" r="5.417" stroke="#000000"/> 		<path id="_896F182E-65D2-433D-B38D-C1BDE6C94BD7frame19" oryx:anchors="top left" style="opacity:1;fill:#F0EFF0;" stroke="#000000" d="M8.043,7.083c0,0,2.814-2.426,5.376-1.807s4.624-0.693,4.624-0.693    c0.25,1.688,0.042,3.75-1.458,5.584c0,0,1.083,0.75,1.083,1.5s0.125,1.875-1,3s-5.5,1.25-6.75,0S8.668,12.834,8.668,12    s0.583-1.25,1.25-1.917C8.835,9.5,7.419,7.708,8.043,7.083z"/> 	</g> 	 	<g id="_896F182E-65D2-433D-B38D-C1BDE6C94BD7serviceTask" transform="scale(0.7,0.7) translate(8,8)" display="none"> 		<polygon oryx:anchors="top left" id="_896F182E-65D2-433D-B38D-C1BDE6C94BD7frame20" style="opacity:1;fill:#ffffff" stroke="#000000" points="15.392,5.064 17.954,2.502 20.347,4.895 17.786,7.455     18.729,9.732 22.353,9.732 22.353,13.115 18.731,13.115 17.788,15.392 20.351,17.955 17.958,20.347 15.397,17.786 13.12,18.729     13.12,22.353 9.737,22.353 9.737,18.731 7.46,17.788 4.897,20.35 2.506,17.958 5.066,15.397 4.124,13.12 0.5,13.12 0.5,9.737     4.121,9.737 5.065,7.461 2.503,4.898 4.895,2.506 7.455,5.066 9.732,4.125 9.732,0.5 13.116,0.5 13.116,4.121 "/> 		<circle oryx:anchors="top left" id="_896F182E-65D2-433D-B38D-C1BDE6C94BD7frame21" style="opacity:1;fill:none" stroke="#000000" cx="11.427" cy="11.426" r="3.714"/> 		<polygon oryx:anchors="top left" id="_896F182E-65D2-433D-B38D-C1BDE6C94BD7frame22" style="opacity:1;fill:#ffffff" stroke="#000000" points="21.392,11.064 23.954,8.502 26.347,10.895 23.786,13.455     24.729,15.732 28.353,15.732 28.353,19.115 24.731,19.115 23.788,21.392 26.351,23.955 23.958,26.347 21.397,23.786 19.12,24.729     19.12,28.353 15.737,28.353 15.737,24.731 13.46,23.788 10.897,26.35 8.506,23.958 11.066,21.397 10.124,19.12 6.5,19.12     6.5,15.737 10.121,15.737 11.065,13.461 8.503,10.898 10.895,8.506 13.455,11.066 15.732,10.125 15.732,6.5 19.116,6.5     19.116,10.121 "/> 		<circle oryx:anchors="top left" id="_896F182E-65D2-433D-B38D-C1BDE6C94BD7frame23" style="opacity:1;fill:none;" stroke="#000000" cx="17.427" cy="17.426" r="3.714"/> 	</g> 	 	<g id="_896F182E-65D2-433D-B38D-C1BDE6C94BD7sendTask" display="none"> 		<path id="_896F182E-65D2-433D-B38D-C1BDE6C94BD7stframe24" oryx:anchors="left top" stroke="#FFFFFF" fill="black" stroke-width="1" d="M8,11 L8,21 L24,21 L24,11 L16,17z"/> 		<path id="_896F182E-65D2-433D-B38D-C1BDE6C94BD7stframe25" oryx:anchors="left top" stroke="#FFFFFF" fill="black" stroke-width="1" d="M7,10 L16,17 L25 10z"/> 	</g> 	 	<g id="_896F182E-65D2-433D-B38D-C1BDE6C94BD7receiveTask" display="none"> 		<path id="_896F182E-65D2-433D-B38D-C1BDE6C94BD7frame26" oryx:anchors="left top" stroke="#000000" fill="none" stroke-width="1" d="M8,11 L8,21 L24,21 L24,11z M8,11 L16,17 L24,11"/> 	</g> 	 	<g id="_896F182E-65D2-433D-B38D-C1BDE6C94BD7none" display="inherit"/>  	<g id="_896F182E-65D2-433D-B38D-C1BDE6C94BD7sequential" display="none">         <path oryx:anchors="bottom" fill="none" stroke="#000000" stroke-width="2" d="M46,76h10M46,72h10 M46,68h10" id="_896F182E-65D2-433D-B38D-C1BDE6C94BD7__896F182E-65D2-433D-B38D-C1BDE6C94BD7_20"/>     </g>   </g></g><g class="children" style="overflow:hidden"/><g class="edge"/></g><g class="controls"><g class="dockers"/><g class="magnets" transform="translate(485, 140)"><g pointer-events="all" display="none" transform="translate(-7, 12)"><circle cx="8" cy="8" r="4" stroke="none" fill="red" fill-opacity="0.3"/></g><g pointer-events="all" display="none" transform="translate(-7, 32)"><circle cx="8" cy="8" r="4" stroke="none" fill="red" fill-opacity="0.3"/></g><g pointer-events="all" display="none" transform="translate(-7, 52)"><circle cx="8" cy="8" r="4" stroke="none" fill="red" fill-opacity="0.3"/></g><g pointer-events="all" display="none" transform="translate(17, 71)"><circle cx="8" cy="8" r="4" stroke="none" fill="red" fill-opacity="0.3"/></g><g pointer-events="all" display="none" transform="translate(42, 71)"><circle cx="8" cy="8" r="4" stroke="none" fill="red" fill-opacity="0.3"/></g><g pointer-events="all" display="none" transform="translate(67, 71)"><circle cx="8" cy="8" r="4" stroke="none" fill="red" fill-opacity="0.3"/></g><g pointer-events="all" display="none" transform="translate(91, 12)"><circle cx="8" cy="8" r="4" stroke="none" fill="red" fill-opacity="0.3"/></g><g pointer-events="all" display="none" transform="translate(91, 32)"><circle cx="8" cy="8" r="4" stroke="none" fill="red" fill-opacity="0.3"/></g><g pointer-events="all" display="none" transform="translate(91, 52)"><circle cx="8" cy="8" r="4" stroke="none" fill="red" fill-opacity="0.3"/></g><g pointer-events="all" display="none" transform="translate(17, -7)"><circle cx="8" cy="8" r="4" stroke="none" fill="red" fill-opacity="0.3"/></g><g pointer-events="all" display="none" transform="translate(42, -7)"><circle cx="8" cy="8" r="4" stroke="none" fill="red" fill-opacity="0.3"/></g><g pointer-events="all" display="none" transform="translate(67, -7)"><circle cx="8" cy="8" r="4" stroke="none" fill="red" fill-opacity="0.3"/></g><g pointer-events="all" display="none" transform="translate(42, 32)"><circle cx="8" cy="8" r="4" stroke="none" fill="red" fill-opacity="0.3"/></g></g></g></g></g><g class="edge"><g id="_10998F43-F18C-4F2B-A310-CAE22BCAFEEE" bpmn2nodeid="_A7AB12CE-A190-47BF-92ED-F2E6597A4A87"><g class="stencils"><g class="me"><g pointer-events="painted" bpmn2nodeid="_A7AB12CE-A190-47BF-92ED-F2E6597A4A87"><path id="_10998F43-F18C-4F2B-A310-CAE22BCAFEEE_1" d="M150.609375 180L194.15625 180 " stroke="#000000" fill="none" stroke-width="2" stroke-linecap="round" stroke-linejoin="round" marker-start="url(#_10998F43-F18C-4F2B-A310-CAE22BCAFEEEstart)" marker-end="url(#_10998F43-F18C-4F2B-A310-CAE22BCAFEEEend)"/></g><text id="_10998F43-F18C-4F2B-A310-CAE22BCAFEEEtext_name" font-size="12" x="164.609375" y="166" oryx:edgePosition="startTop" stroke-width="0pt" letter-spacing="-0.01px" fill="#000000" text-anchor="start" transform="rotate(360 150.609375 180)" visibility="inherit" oryx:fontSize="12"/></g><g class="children" style="overflow:hidden"/><g class="edge"/></g><g class="controls"><g class="dockers"/><g class="magnets"/></g></g><g id="_2C8D40A7-7FE7-4AE1-AD39-FFB31879BA2A" bpmn2nodeid="_F2168B95-BBB5-48D9-BBDF-E2902781F03F"><g class="stencils"><g class="me"><g pointer-events="painted" bpmn2nodeid="_F2168B95-BBB5-48D9-BBDF-E2902781F03F"><path id="_2C8D40A7-7FE7-4AE1-AD39-FFB31879BA2A_1" d="M295.84375 180L339.15625 180 " stroke="#000000" fill="none" stroke-width="2" stroke-linecap="round" stroke-linejoin="round" marker-start="url(#_2C8D40A7-7FE7-4AE1-AD39-FFB31879BA2Astart)" marker-end="url(#_2C8D40A7-7FE7-4AE1-AD39-FFB31879BA2Aend)"/></g><text id="_2C8D40A7-7FE7-4AE1-AD39-FFB31879BA2Atext_name" font-size="12" x="309.84375" y="166" oryx:edgePosition="startTop" stroke-width="0pt" letter-spacing="-0.01px" fill="#000000" text-anchor="start" transform="rotate(360 295.84375 180)" visibility="inherit" oryx:fontSize="12"/></g><g class="children" style="overflow:hidden"/><g class="edge"/></g><g class="controls"><g class="dockers"/><g class="magnets"/></g></g><g id="_5B3900FE-6470-4E0B-A7EA-9644D1DBFF17" bpmn2nodeid="_C4260C59-DC7B-4AC8-9579-FE78F6A191EB"><g class="stencils"><g class="me"><g pointer-events="painted" bpmn2nodeid="_C4260C59-DC7B-4AC8-9579-FE78F6A191EB"><path id="_5B3900FE-6470-4E0B-A7EA-9644D1DBFF17_1" d="M440.84375 180L484.15625 180 " stroke="#000000" fill="none" stroke-width="2" stroke-linecap="round" stroke-linejoin="round" marker-start="url(#_5B3900FE-6470-4E0B-A7EA-9644D1DBFF17start)" marker-end="url(#_5B3900FE-6470-4E0B-A7EA-9644D1DBFF17end)"/></g><text id="_5B3900FE-6470-4E0B-A7EA-9644D1DBFF17text_name" font-size="12" x="454.84375" y="166" oryx:edgePosition="startTop" stroke-width="0pt" letter-spacing="-0.01px" fill="#000000" text-anchor="start" transform="rotate(360 440.84375 180)" visibility="inherit" oryx:fontSize="12"/></g><g class="children" style="overflow:hidden"/><g class="edge"/></g><g class="controls"><g class="dockers"/><g class="magnets"/></g></g></g><text id="_F4B59C46-25FF-45F4-9EB6-A8CBD2A75D88" style="stroke-width:1;fill:rgb(177,194,214);font-family:arial;font-weight:bold" font-size="12" onclick="ORYX.Plugins.CanvasTitle.openTextualAnalysis()" onmouseover="ORYX.Plugins.CanvasTitle.addToolTip('_F4B59C46-25FF-45F4-9EB6-A8CBD2A75D88')" transform="translate(10, 20)">Production Optimization-ESP Frequency Decrease v.1.0 (KwIDFProject.ProductionOptimization-ESPFrequencyDecrease)</text><text id="_F4B59C46-25FF-45F4-9EB6-A8CBD2A75D88" style="stroke-width:1;fill:rgb(177,194,214);font-family:arial;font-weight:bold" font-size="12" onclick="ORYX.Plugins.CanvasTitle.openTextualAnalysis()" onmouseover="ORYX.Plugins.CanvasTitle.addToolTip('_F4B59C46-25FF-45F4-9EB6-A8CBD2A75D88')" transform="translate(10, 20)">Production Optimization-ESP Frequency Decrease v.1.0 (KwIDFProject.ProductionOptimization-ESPFrequencyDecrease)</text></g></g></svg>